<svg xmlns="http://www.w3.org/2000/svg" viewBox="0 0 1539.17 725.24">
  <defs>
    <style>
      .cls-1, .cls-10, .cls-11, .cls-4, .cls-5, .cls-6, .cls-7, .cls-8, .cls-9 {
        fill: none;
        stroke-width: 10px;
      }

      .cls-1 {
        stroke: #c00;
      }

      .cls-1, .cls-10, .cls-11, .cls-3, .cls-4, .cls-5, .cls-6, .cls-7, .cls-8, .cls-9 {
        stroke-miterlimit: 10;
      }

      .cls-2 {
        font-size: 11px;
        font-family: OpenSans, Open Sans;
      }

      .cls-3 {
        fill: #fff;
        stroke: #999;
        stroke-width: 5px;
      }

      .cls-4 {
        stroke: #f3c;
      }

      .cls-5 {
        stroke: #9cc;
      }

      .cls-6 {
        stroke: #096;
      }

      .cls-7 {
        stroke: #06c;
      }

      .cls-8 {
        stroke: #ff0;
      }

      .cls-9 {
        stroke: red;
      }

      .cls-10 {
        stroke: #663;
      }

      .cls-11 {
        stroke: #000;
      }
    </style>
  </defs>
  <title>SVG_Illustrator-Exported</title>
  <g id="Layer_2" data-name="Layer 2">
    <g id="Layer_3" data-name="Layer 3">
      <g id="Line_RedDark">
        <line class="cls-1" x1="1228.65" y1="246" x2="1497.89" y2="515.24"/>
        <g id="CarDealer">
          <text class="cls-2" transform="translate(1428.15 404.37) rotate(45)">Car Dealer</text>
          <circle class="cls-3" cx="1428.06" cy="445.51" r="13"/>
        </g>
        <g id="TimingApp">
          <text class="cls-2" transform="translate(1371.2 340.56) rotate(45)">Timming App</text>
          <circle class="cls-3" cx="1373.11" cy="394.7" r="13"/>
        </g>
        <g id="Calculator">
          <text class="cls-2" transform="translate(1311.87 281.61) rotate(45)">Calculator</text>
          <circle class="cls-3" cx="1313.77" cy="335.74" r="13"/>
        </g>
        <g id="HelloWorldOfWindows">
          <text class="cls-2" transform="translate(1238.69 205.9) rotate(45)">Hello World <tspan x="0" y="13.2">of Windows</tspan></text>
          <circle class="cls-3" cx="1232.6" cy="251.04" r="13"/>
        </g>
      </g>
      <g id="Line_Pink">
        <path class="cls-4" d="M1535.64,472,1221.23,157.58a11.13,11.13,0,0,0-6.83-2.83H727.18"/>
        <line class="cls-4" x1="1211.65" y1="154.75" x2="1274.28" y2="92.13"/>
        <g id="Tom_Dick" data-name="Tom Dick">
          <circle class="cls-3" cx="1125.04" cy="154.71" r="13"/>
          <text class="cls-2" transform="translate(1083.94 90.46) rotate(45)">Tom Dick <tspan x="0" y="13.2">&amp; Harry</tspan></text>
        </g>
        <g id="Dont_Cross" data-name="Dont Cross">
          <text class="cls-2" transform="translate(1162.94 79.95) rotate(45)">Don’t Cross <tspan x="0" y="13.2">the Streams</tspan></text>
          <circle class="cls-3" cx="1214.38" cy="154.23" r="13"/>
        </g>
        <g id="SimpleXML">
          <text class="cls-2" transform="translate(1302.05 78.92)">Simple XML</text>
          <circle class="cls-3" cx="1275.93" cy="93.37" r="13"/>
        </g>
      </g>
      <g id="Line_LightBlue">
        <line class="cls-5" x1="1182.26" y1="268.6" x2="1182.26" y2="336.4"/>
        <line class="cls-5" x1="1124.92" y1="169.86" x2="1124.92" y2="210.27"/>
        <line class="cls-5" x1="1310.26" y1="396.6" x2="1310.26" y2="471.27"/>
        <path class="cls-5" d="M1462.14,548.48l-335.4-335.4a11.13,11.13,0,0,0-6.83-2.83H727.18"/>
        <g id="VectorClass">
          <text class="cls-2" transform="translate(853.28 240.97) rotate(45)">Vector Class</text>
          <circle class="cls-3" cx="848.61" cy="212.85" r="13"/>
        </g>
        <g id="DataCopier">
          <text class="cls-2" transform="translate(775.98 240.32) rotate(45)">Data Copier</text>
          <circle class="cls-3" cx="773.05" cy="210.1" r="13"/>
        </g>
        <g id="AbsoluteZero">
          <text class="cls-2" transform="translate(930.59 241.62) rotate(45)">Absolute Zero</text>
          <circle class="cls-3" cx="924.16" cy="212.12" r="13"/>
        </g>
        <g id="Fractions">
          <text class="cls-2" transform="translate(1007.89 239.66) rotate(45)">Fractions</text>
          <circle class="cls-3" cx="999.71" cy="210.76" r="13"/>
        </g>
        <g id="BankAccount">
          <text class="cls-2" transform="translate(1085.2 239.01) rotate(45)">Bank Account</text>
          <circle class="cls-3" cx="1075.27" cy="209.51" r="13"/>
        </g>
        <g id="MusicShop">
          <text class="cls-2" transform="translate(1379.73 576.52) rotate(-45)">Music Shop</text>
        </g>
        <g id="Generics">
          <text class="cls-2" transform="translate(1265.73 524.22) rotate(-45)">Generics</text>
          <circle class="cls-3" cx="1306.93" cy="472.04" r="13"/>
        </g>
        <g id="Lander">
          <text class="cls-2" transform="translate(1140.4 384.22) rotate(-45)">Lander</text>
          <circle class="cls-3" cx="1180.6" cy="336.04" r="13"/>
        </g>
        <g id="VirtualPeople">
          <text class="cls-2" transform="translate(1143.7 214.12)">Virtual Student</text>
          <circle class="cls-3" cx="1125.6" cy="208.37" r="13"/>
        </g>
        <g id="CharacterClass">
          <text class="cls-2" transform="translate(1194.4 433.22) rotate(-45)">Character Class</text>
          <circle class="cls-3" cx="1264.6" cy="355.04" r="13"/>
        </g>
        <g id="CastAway">
          <text class="cls-2" transform="translate(1257.06 458.55) rotate(-45)">Cast Away</text>
          <circle class="cls-3" cx="1310.27" cy="400.37" r="13"/>
        </g>
      </g>
      <g id="Line_Green">
        <path class="cls-6" d="M716.68,155.15H502.84A11.13,11.13,0,0,0,496,158L373.42,280.58a4,4,0,0,0,0,5.66l38.84,38.84a11.13,11.13,0,0,1,2.83,6.83V530.15a4,4,0,0,1-4,4H307.84a13,13,0,0,1-7.09-2.54L236.84,478.9"/>
        <g id="CountingUpAgain">
          <text class="cls-2" transform="translate(312.62 549.85) rotate(45)">Counting Up <tspan x="0" y="13.2" xml:space="preserve">  Again</tspan></text>
          <circle class="cls-3" cx="303.6" cy="532.24" r="13"/>
        </g>
        <g id="CountingUpOnceMore">
          <text class="cls-2" transform="translate(427.28 550.84) rotate(45)">Counting Up<tspan x="3.66" y="13.2">Once More</tspan></text>
          <circle class="cls-3" cx="410.93" cy="532.9" r="13"/>
        </g>
        <g id="TestPlan">
          <text class="cls-2" transform="translate(550.94 136.37)">Test Plan</text>
          <circle class="cls-3" cx="538.11" cy="152.84" r="13"/>
        </g>
        <g id="DrinksMachine">
          <text class="cls-2" transform="translate(433.29 264.09) rotate(-45)">Drinks Machine</text>
          <circle class="cls-3" cx="445.09" cy="210.4" r="13"/>
        </g>
        <g id="Debugger">
          <text class="cls-2" transform="translate(433.09 330.11)">Debugger</text>
          <circle class="cls-3" cx="412.93" cy="326.9" r="13"/>
        </g>
      </g>
      <g id="Line_Blue">
        <path class="cls-7" d="M349.84,252.15,496.76,105.23a11.13,11.13,0,0,1,6.83-2.83H716.68"/>
        <line class="cls-7" x1="499.09" y1="41.9" x2="499.09" y2="102.4"/>
        <g id="MultipleChoiceQuestion">
          <text class="cls-2" transform="translate(339.03 160.1) rotate(45)">Multiple<tspan x="7.3" y="13.2">Choice</tspan><tspan x="-4.97" y="26.4">Question</tspan></text>
          <circle class="cls-3" cx="387.52" cy="212.81" r="13"/>
        </g>
        <g id="ArithmeticMean">
          <text class="cls-2" transform="translate(374.39 103.96) rotate(45)">Arithemetic<tspan x="30.37" y="13.2">Mean</tspan></text>
          <circle class="cls-3" cx="434.18" cy="165.71" r="13"/>
        </g>
        <g id="MonthlyCalendar">
          <text class="cls-2" transform="translate(451.18 66.1) rotate(45)">Monthly<tspan x="0" y="13.2">Calendar</tspan></text>
        </g>
        <g id="CustomDice">
          <text class="cls-2" transform="translate(458.46 9.43)">Custom Dice</text>
          <circle class="cls-3" cx="499.09" cy="47.4" r="13"/>
        </g>
      </g>
      <g id="Line_Yellow">
        <path class="cls-8" d="M345.59,256.9l-32.17,26.46a9.63,9.63,0,0,0-3.09,6.54V475.4a4,4,0,0,1-4,4h-68a13,13,0,0,1-7.09-2.54l-54.66-45"/>
        <g id="TryParsing">
          <text class="cls-2" transform="translate(329.35 331.43)">Try Parsing</text>
          <circle class="cls-3" cx="308.88" cy="328.11" r="13"/>
        </g>
        <g id="HappinessMeter">
          <text class="cls-2" transform="translate(225.06 369.63) rotate(-45)">Hapiness Meter</text>
          <circle class="cls-3" cx="309.59" cy="285.07" r="13"/>
        </g>
        <g id="MathFunctions">
          <text class="cls-2" transform="translate(329.35 380.38)">Math Functions</text>
          <circle class="cls-3" cx="308.88" cy="377.07" r="13"/>
        </g>
        <g id="TicketSales">
          <text class="cls-2" transform="translate(329.35 429.34)">Ticket Sales</text>
          <circle class="cls-3" cx="308.88" cy="426.03" r="13"/>
        </g>
        <g id="MagicNumbers">
          <text class="cls-2" transform="translate(329.35 478.3)">Magic Numbers</text>
          <circle class="cls-3" cx="308.88" cy="474.99" r="13"/>
        </g>
        <g id="DrivingTest">
          <text class="cls-2" transform="translate(238.94 592.19) rotate(-90)">Driving Test</text>
          <circle class="cls-3" cx="239.76" cy="483.65" r="13"/>
        </g>
      </g>
      <g id="Line_Red">
        <path class="cls-9" d="M245.09,32.9l32,48.44a15.69,15.69,0,0,1,2.21,7.34v83.5a11.13,11.13,0,0,1-2.83,6.83L174,281.53"/>
        <path class="cls-9" d="M90.59,226.07H170a4,4,0,0,1,4,4l-1.06,402"/>
        <path class="cls-9" d="M282.09,712.4"/>
        <g id="PaperProblem">
          <text class="cls-2" transform="translate(2.11 153.68) rotate(45)">Paper Problem</text>
          <circle class="cls-3" cx="89.09" cy="229.07" r="13"/>
        </g>
        <g id="PaintProblem">
          <text class="cls-2" transform="translate(89.61 153.27) rotate(45)">Paint Problem</text>
          <circle class="cls-3" cx="147.59" cy="227.66" r="13"/>
        </g>
        <g id="YouthCalculator">
          <text class="cls-2" transform="translate(58.8 316.05)">Youth Calculator</text>
          <circle class="cls-3" cx="173.59" cy="312.74" r="13"/>
        </g>
        <g id="ConsoleMenu">
          <text class="cls-2" transform="translate(178.59 172.86)">Console Menu</text>
        </g>
        <g id="Verification">
          <text class="cls-2" transform="translate(166.17 40.55)">Verification</text>
          <circle class="cls-3" cx="250.09" cy="37.24" r="13"/>
        </g>
        <g id="TemperatureConversion">
          <text class="cls-2" transform="translate(124.09 130.22)">Temperature Conversion</text>
          <circle class="cls-3" cx="280.09" cy="126.9" r="13"/>
        </g>
        <g id="RetirementPlanner">
          <text class="cls-2" transform="translate(61.12 376.55)">Retirement Plan</text>
          <circle class="cls-3" cx="172.59" cy="373.24" r="13"/>
        </g>
        <g id="GettingNumbers">
          <text class="cls-2" transform="translate(55.3 432.72)">Getting Numbers</text>
          <circle class="cls-3" cx="172.59" cy="429.4" r="13"/>
        </g>
        <g id="BusinessCard">
          <text class="cls-2" transform="translate(71.12 489.72)">Business Card</text>
          <circle class="cls-3" cx="171.92" cy="486.4" r="13"/>
        </g>
        <g id="BadData">
          <text class="cls-2" transform="translate(205.59 89.11)">Bad Data</text>
          <circle class="cls-3" cx="275.09" cy="83.24" r="13"/>
        </g>
        <g id="WelcomeMessage">
          <text class="cls-2" transform="translate(48.4 533.72)">Welcome Message</text>
          <circle class="cls-3" cx="173.42" cy="530.4" r="13"/>
        </g>
      </g>
      <g id="Line_Olive">
        <path class="cls-10" d="M544.19,545.9h-37.5a4.12,4.12,0,0,0-4.09,4l-.64,29.5a3.91,3.91,0,0,0,3.91,4h29.5a4,4,0,0,0,4-4l.79-365.15a4,4,0,0,1,4-4h173.9"/>
        <g id="MethodComments">
          <text class="cls-2" transform="translate(567.76 434.86)">Method Comments</text>
          <circle class="cls-3" cx="540.93" cy="431.66" r="13"/>
        </g>
        <g id="Recursion">
          <text class="cls-2" transform="translate(567.76 371.7)">Recursion</text>
          <circle class="cls-3" cx="541.93" cy="368.5" r="13"/>
        </g>
        <g id="RecordSales">
          <text class="cls-2" transform="translate(681.2 231.01) rotate(45)">Record Sales</text>
        </g>
        <g id="TicTacToe">
          <text class="cls-2" transform="translate(637.15 274.78) rotate(45)">Tic Tac Toe</text>
          <circle class="cls-3" cx="623.93" cy="260" r="13"/>
        </g>
        <g id="Rectangles">
          <text class="cls-2" transform="translate(567.76 308.54)">Rectangles</text>
          <circle class="cls-3" cx="540.6" cy="305.33" r="13"/>
        </g>
        <g id="WhiteBox">
          <text class="cls-2" transform="translate(567.48 278.15) rotate(-45)">White Box</text>
          <circle class="cls-3" cx="610.93" cy="211.82" r="13"/>
        </g>
        <g id="Breakdown">
          <text class="cls-2" transform="translate(513.75 599.41) rotate(45)">Breakdown</text>
          <circle class="cls-3" cx="505.93" cy="579.82" r="13"/>
        </g>
        <g id="GeometryCalculation">
          <text class="cls-2" transform="translate(567.76 498.02)">Geometry Calculation</text>
          <circle class="cls-3" cx="540.93" cy="494.82" r="13"/>
        </g>
      </g>
      <g id="Line_Black">
        <line class="cls-11" x1="80.59" y1="711.74" x2="174.28" y2="632.05"/>
        <g id="BasicComments">
          <text class="cls-2" transform="translate(155.42 676.55)">Basic Comments</text>
          <circle class="cls-3" cx="129.42" cy="673.24" r="13"/>
        </g>
        <g id="CountingUp">
          <text class="cls-2" transform="translate(199.42 635.88)">Counting Up</text>
          <circle class="cls-3" cx="173.42" cy="632.57" r="13"/>
        </g>
        <g id="HelloWorld">
          <text class="cls-2" transform="translate(110.59 713.05)">Hello World</text>
          <circle class="cls-3" cx="84.59" cy="709.74" r="13"/>
        </g>
      </g>
    </g>
  </g>
</svg>
